<?xml version="1.0" encoding="UTF-8" standalone="no"?>
<svg
   xmlns:dc="http://purl.org/dc/elements/1.1/"
   xmlns:cc="http://creativecommons.org/ns#"
   xmlns:rdf="http://www.w3.org/1999/02/22-rdf-syntax-ns#"
   xmlns:svg="http://www.w3.org/2000/svg"
   xmlns="http://www.w3.org/2000/svg"
   xmlns:xlink="http://www.w3.org/1999/xlink"
   xmlns:sodipodi="http://sodipodi.sourceforge.net/DTD/sodipodi-0.dtd"
   xmlns:inkscape="http://www.inkscape.org/namespaces/inkscape"
   version="1.1"
   id="svg2"
   viewBox="0 0 524.40944 372.04724"
   height="105mm"
   width="148mm"
   inkscape:version="0.91 r13725"
   sodipodi:docname="logosvg.svg">
  <sodipodi:namedview
     pagecolor="#ffffff"
     bordercolor="#666666"
     borderopacity="1"
     objecttolerance="10"
     gridtolerance="10"
     guidetolerance="10"
     inkscape:pageopacity="0"
     inkscape:pageshadow="2"
     inkscape:window-width="1366"
     inkscape:window-height="705"
     id="namedview10"
     showgrid="false"
     inkscape:snap-page="false"
     inkscape:zoom="0.89702955"
     inkscape:cx="308.4934"
     inkscape:cy="178.9632"
     inkscape:window-x="-8"
     inkscape:window-y="-8"
     inkscape:window-maximized="1"
     inkscape:current-layer="svg2" />
  <defs
     id="defs4">
    <linearGradient
       inkscape:collect="always"
       id="linearGradient3356">
      <stop
         style="stop-color:#0000ff;stop-opacity:1;"
         offset="0"
         id="stop3358" />
      <stop
         style="stop-color:#0000ff;stop-opacity:0;"
         offset="1"
         id="stop3360" />
    </linearGradient>
    <linearGradient
       inkscape:collect="always"
       xlink:href="#linearGradient3356"
       id="linearGradient3362"
       x1="250.82785"
       y1="57.676327"
       x2="248.59828"
       y2="171.38495"
       gradientUnits="userSpaceOnUse" />
  </defs>
  <metadata
     id="metadata7">
    <rdf:RDF>
      <cc:Work
         rdf:about="">
        <dc:format>image/svg+xml</dc:format>
        <dc:type
           rdf:resource="http://purl.org/dc/dcmitype/StillImage" />
        <dc:title></dc:title>
      </cc:Work>
    </rdf:RDF>
  </metadata>
  <rect
     style="fill:url(#linearGradient3362);fill-rule:evenodd;stroke:#000000;stroke-width:0.97375828px;stroke-linecap:butt;stroke-linejoin:miter;stroke-opacity:1;fill-opacity:1"
     id="rect3354"
     width="521.36566"
     height="372.11896"
     x="2.2164586"
     y="-0.30589622" />
  <text
     xml:space="preserve"
     style="font-style:normal;font-weight:normal;font-size:50.86080933px;line-height:125%;font-family:sans-serif;letter-spacing:0px;word-spacing:0px;fill:#000000;fill-opacity:1;stroke:none;stroke-width:1px;stroke-linecap:butt;stroke-linejoin:miter;stroke-opacity:1"
     x="44.13195"
     y="136.07672"
     id="text3364"
     sodipodi:linespacing="125%"
     transform="scale(0.90075571,1.1101789)"><tspan
       sodipodi:role="line"
       id="tspan3366"
       x="44.13195"
       y="136.07672">SERGIO GONZÁLEZ</tspan></text>
  <path
     style="fill:#000000;fill-opacity:1;fill-rule:nonzero;stroke:none;stroke-width:1px;stroke-linecap:butt;stroke-linejoin:miter;stroke-opacity:1"
     id="path3370"
     d="m 198.43028,245.13801 c -4.7966,-0.6169 -9.63784,-0.87777 -14.47002,-0.73394 -7.56121,0.7045 -15.10011,1.89152 -22.45559,3.78673 -1.1437,0.37144 -2.31452,0.66791 -3.43109,1.11433 -1.05516,0.42186 -4.05514,2.049 -3.06892,1.48446 3.69557,-2.11545 7.35439,-4.31627 11.20221,-6.14019 0.81259,-0.38517 -1.38783,1.14858 -2.02029,1.78784 -1.49261,1.50869 -1.54628,1.85765 -2.58288,3.64779 -1.66489,3.67279 -1.77166,7.59618 -1.16108,11.51499 0.42499,2.5693 1.1329,4.95236 3.6659,6.01556 2.43709,0.59389 4.99069,0.4619 7.48196,0.46693 3.39183,-0.0112 6.78356,-0.046 10.17537,-0.0568 3.31049,0.0778 6.58428,-0.0103 9.87045,-0.3971 4.29848,-0.79269 8.39918,-2.3452 12.59485,-3.5177 3.9525,-1.05644 8.0505,-1.44622 12.12684,-1.62771 4.52701,-0.42698 7.49039,0.41531 11.60695,2.16697 5.09174,2.15274 8.4589,6.45122 11.6275,10.78293 2.58497,4.45525 7.02268,7.27075 10.6115,10.82779 2.45362,2.43189 3.24494,3.51163 5.39259,6.10876 3.45388,4.4801 5.10224,8.75508 5.75019,14.29539 0.39625,3.70845 0.0209,7.51903 -1.89152,10.8064 -0.51177,0.87973 -1.17225,1.66408 -1.75837,2.49613 -9.62762,10.11611 -22.99369,15.32701 -36.31079,18.3445 -6.26488,1.07891 -12.58414,2.14067 -18.94759,2.43196 -2.67019,0.12223 -5.55931,0.007 -8.22456,-0.0555 -8.42925,-0.20532 -16.49395,-2.74565 -24.32036,-5.6722 -4.83313,-1.89581 -9.90233,-3.66034 -13.55088,-7.4972 -1.60228,-2.04612 -3.34708,-3.76118 -5.53011,-5.16364 -1.70166,-0.85255 -3.42962,-1.51016 -5.0034,-2.59427 0,0 13.88035,-8.89814 13.88035,-8.89814 l 0,0 c 1.59158,0.99349 3.34649,1.64211 4.9491,2.61967 2.26378,1.49546 4.08678,3.33299 5.72162,5.50145 3.41259,3.6431 8.30425,5.24636 12.81854,7.09219 7.69083,2.91379 15.60406,5.25945 23.91143,5.2861 8.99603,0.0567 17.97192,-0.60658 26.77658,-2.5749 4.43328,-1.12177 5.51986,-1.27013 9.74594,-2.82045 1.43906,-0.52791 5.48782,-2.65183 4.25769,-1.73731 -3.17152,2.35778 -6.72766,4.15081 -10.1537,6.12055 -0.98536,0.56651 1.92921,-1.20966 2.82616,-1.90774 0.82246,-0.64012 1.54615,-1.39791 2.31923,-2.09686 0.60466,-0.72847 1.27671,-1.40591 1.81396,-2.18542 2.0086,-2.91431 2.48987,-6.49478 2.22753,-9.94184 -0.47924,-5.00261 -1.92313,-9.578 -5.02177,-13.63926 -2.11667,-2.66213 -2.66457,-3.51178 -5.16994,-5.96194 -2.97719,-2.91157 -6.53318,-5.28282 -9.26527,-8.44602 -0.66394,-0.7687 -1.154,-1.67187 -1.73099,-2.50781 -3.10081,-4.07398 -6.32963,-8.07243 -11.26951,-9.95794 -3.89157,-1.4624 -7.12886,-1.95865 -11.28761,-1.52214 -3.98707,0.25781 -7.97769,0.68873 -11.81548,1.86257 -4.23301,1.28935 -8.46049,2.73862 -12.85724,3.35212 -3.32091,0.31793 -6.64373,0.28295 -9.97766,0.26888 -3.39891,0.0192 -6.79782,0.041 -10.19672,0.0555 -2.70206,-0.0154 -5.52722,0.11933 -8.02655,-1.07112 -2.67448,-1.7021 -3.84351,-4.29451 -4.28627,-7.3997 -0.69418,-4.21051 -0.78881,-8.41636 0.77096,-12.46918 0.32809,-0.72891 0.58015,-1.49707 0.98428,-2.18675 0.56846,-0.97014 2.5777,-3.47804 3.46396,-4.0467 7.87902,-5.05544 14.31286,-9.76534 22.96971,-12.04904 7.49293,-1.76029 15.1427,-3.01858 22.81791,-3.61215 4.97791,-0.0448 9.94883,0.221 14.90325,0.71141 0,0 -13.47835,9.53879 -13.47835,9.53879 z"
     inkscape:connector-curvature="0" />
  <path
     style="fill:#000000;fill-opacity:1;fill-rule:nonzero;stroke:none;stroke-width:1px;stroke-linecap:butt;stroke-linejoin:miter;stroke-opacity:1"
     id="path3372"
     d="m 331.44456,243.98749 c -4.34014,-0.57265 -8.73132,-0.87559 -13.10644,-0.7013 -7.73326,0.3293 -15.42476,1.54234 -23.05205,2.81949 -8.89909,1.32523 -17.48321,4.0774 -25.90126,7.17659 -2.80828,1.13754 -6.56515,2.59126 -9.27731,3.96055 -1.48419,0.74932 -5.81815,3.22029 -4.34542,2.44869 3.17622,-1.66409 6.11846,-3.8184 9.45699,-5.12675 1.43195,-0.56118 -2.46057,1.8489 -3.63297,2.84435 -1.1298,0.95928 -2.17865,2.01001 -3.26798,3.01502 -5.52866,5.53478 -9.25338,12.38456 -12.26413,19.52311 -2.627,6.53237 -3.60594,13.52066 -4.20152,20.48755 -0.59411,5.38327 -0.18447,9.90557 1.5827,15.02049 2.81603,6.26058 7.25227,11.6524 12.70103,15.81933 1.34324,1.02724 2.78848,1.91376 4.18272,2.87063 8.98089,5.47968 18.91548,9.02309 29.11588,11.40987 7.96506,1.80471 15.72325,1.73636 23.76257,0.66088 4.68845,-0.95406 9.31251,-2.23231 13.66678,-4.24366 1.22528,-0.56599 4.7692,-2.52929 3.5899,-1.87286 -12.05739,6.7114 -12.98338,7.74698 -6.77373,2.86234 5.34304,-4.48414 8.85694,-10.28231 10.73417,-16.93086 1.13842,-4.39108 0.50716,-6.52995 -1.70228,-10.28067 -1.69368,-2.12668 -3.76648,-3.90284 -6.02162,-5.40719 -2.15983,-1.65178 -4.5665,-2.87768 -6.97151,-4.12096 -3.21147,-1.96081 -6.87594,-2.82929 -10.36579,-4.14039 -3.02162,-1.06783 -6.0889,-1.99138 -9.12943,-3.00019 -2.81882,-0.93791 -5.80574,-0.96872 -8.69573,-1.51157 -3.11812,-0.95294 -6.3261,-1.5308 -9.56302,-1.87617 -2.42383,-0.22149 -4.85955,-0.22493 -7.29122,-0.22772 -1.8485,-0.12799 -3.23105,-1.0164 -4.72509,-1.9956 0,0 13.91135,-8.94502 13.91135,-8.94502 l 0,0 c 1.29357,0.80522 2.61539,1.28392 4.16973,1.25099 2.456,0.031 4.91639,0.0941 7.35423,0.42154 3.23568,0.46631 6.4096,1.20942 9.59745,1.92311 2.97688,0.40097 5.96749,0.77183 8.835,1.71764 3.05524,0.95399 6.06447,2.04559 9.08154,3.11258 3.57741,1.28318 7.25212,2.33735 10.56692,4.24802 2.47263,1.26253 4.88039,2.64062 7.11727,4.2928 2.37358,1.73328 4.59641,3.65051 6.31596,6.06049 2.44616,4.24462 3.34905,6.5035 2.14849,11.49994 -1.7747,6.94726 -5.27489,13.13171 -10.63668,17.98419 -10.99815,9.24733 -23.78351,16.05656 -37.88846,18.6365 -8.47474,1.02814 -15.78728,0.97243 -24.12473,-1.12119 -10.2444,-2.68101 -20.25184,-6.43478 -29.32928,-11.95392 -1.42961,-0.9959 -2.90678,-1.92678 -4.28882,-2.98771 -5.66086,-4.34558 -10.38442,-9.88644 -13.47028,-16.33452 -2.06286,-5.57967 -2.60971,-9.70548 -1.92277,-15.63322 0.67385,-7.10227 1.72088,-14.22749 4.09541,-20.98398 3.03869,-7.31115 6.6815,-14.40532 12.17855,-20.21153 1.74887,-1.69146 4.81108,-4.81715 6.86632,-6.13063 10.0486,-6.42195 20.05537,-12.6849 31.27823,-16.73542 8.52022,-3.04692 17.17324,-5.76349 26.16779,-7.00569 7.78787,-1.20563 15.59102,-2.56902 23.47902,-2.862 4.51322,-0.0275 9.02051,0.28487 13.50965,0.74405 0,0 -13.51613,9.52998 -13.51613,9.52998 z"
     inkscape:connector-curvature="0" />
  <text
     xml:space="preserve"
     style="font-style:normal;font-weight:normal;font-size:39.1255455px;line-height:125%;font-family:sans-serif;letter-spacing:0px;word-spacing:0px;fill:#e3dedb;fill-opacity:1;stroke:none;stroke-width:1px;stroke-linecap:butt;stroke-linejoin:miter;stroke-opacity:1"
     x="35.556705"
     y="-182.05576"
     id="text3364-7"
     sodipodi:linespacing="125%"
     transform="scale(1.1709271,-0.85402411)"><tspan
       sodipodi:role="line"
       id="tspan3366-6"
       x="35.556705"
       y="-182.05576">SERGIO GONZÁLEZ</tspan></text>
</svg>
